<svg width="260" height="260" viewBox="0 0 260 260" fill="none" xmlns="http://www.w3.org/2000/svg">
<defs>
<linearGradient id="paint0_linear_97_1144" x1="130" y1="0" x2="130" y2="260" gradientUnits="userSpaceOnUse">
<stop stop-color="#0DD2DD"/>
<stop offset="1" stop-color="#014B50"/>
</linearGradient>
<linearGradient id="paint1_linear_97_1144" x1="130" y1="160" x2="130" y2="220" gradientUnits="userSpaceOnUse">
<stop stop-color="#0DD2DD"/>
<stop offset="1" stop-color="#014B50"/>
</linearGradient>
</defs>
<path d="M10 80C12.6522 80 15.1957 78.9464 17.0711 77.0711C18.9464 75.1957 20 72.6522 20 70V20H70C72.6522 20 75.1957 18.9464 77.0711 17.0711C78.9464 15.1957 80 12.6522 80 10C80 7.34784 78.9464 4.8043 77.0711 2.92893C75.1957 1.05357 72.6522 0 70 0H20C14.6957 0 9.60859 2.10714 5.85786 5.85786C2.10714 9.60859 0 14.6957 0 20V70C0 72.6522 1.05357 75.1957 2.92893 77.0711C4.8043 78.9464 7.34784 80 10 80ZM240 0H190C187.348 0 184.804 1.05357 182.929 2.92893C181.054 4.8043 180 7.34784 180 10C180 12.6522 181.054 15.1957 182.929 17.0711C184.804 18.9464 187.348 20 190 20H240V70C240 72.6522 241.054 75.1957 242.929 77.0711C244.804 78.9464 247.348 80 250 80C252.652 80 255.196 78.9464 257.071 77.0711C258.946 75.1957 260 72.6522 260 70V20C260 14.6957 257.893 9.60859 254.142 5.85786C250.391 2.10714 245.304 0 240 0ZM250 180C247.348 180 244.804 181.054 242.929 182.929C241.054 184.804 240 187.348 240 190V240H190C187.348 240 184.804 241.054 182.929 242.929C181.054 244.804 180 247.348 180 250C180 252.652 181.054 255.196 182.929 257.071C184.804 258.946 187.348 260 190 260H240C245.304 260 250.391 257.893 254.142 254.142C257.893 250.391 260 245.304 260 240V190C260 187.348 258.946 184.804 257.071 182.929C255.196 181.054 252.652 180 250 180ZM70 240H20V190C20 187.348 18.9464 184.804 17.0711 182.929C15.1957 181.054 12.6522 180 10 180C7.34784 180 4.8043 181.054 2.92893 182.929C1.05357 184.804 0 187.348 0 190V240C0 245.304 2.10714 250.391 5.85786 254.142C9.60859 257.893 14.6957 260 20 260H70C72.6522 260 75.1957 258.946 77.0711 257.071C78.9464 255.196 80 252.652 80 250C80 247.348 78.9464 244.804 77.0711 242.929C75.1957 241.054 72.6522 240 70 240ZM70 40C67.3478 40 64.8043 41.0536 62.9289 42.9289C61.0536 44.8043 60 47.3478 60 50V70C60 72.6522 61.0536 75.1957 62.9289 77.0711C64.8043 78.9464 67.3478 80 70 80C72.6522 80 75.1957 78.9464 77.0711 77.0711C78.9464 75.1957 80 72.6522 80 70V50C80 47.3478 78.9464 44.8043 77.0711 42.9289C75.1957 41.0536 72.6522 40 70 40ZM190 80C192.652 80 195.196 78.9464 197.071 77.0711C198.946 75.1957 200 72.6522 200 70V50C200 47.3478 198.946 44.8043 197.071 42.9289C195.196 41.0536 192.652 40 190 40C187.348 40 184.804 41.0536 182.929 42.9289C181.054 44.8043 180 47.3478 180 50V70C180 72.6522 181.054 75.1957 182.929 77.0711C184.804 78.9464 187.348 80 190 80ZM110 160H120C125.304 160 130.391 157.893 134.142 154.142C137.893 150.391 140 145.304 140 140V50C140 47.3478 138.946 44.8043 137.071 42.9289C135.196 41.0536 132.652 40 130 40C127.348 40 124.804 41.0536 122.929 42.9289C121.054 44.8043 120 47.3478 120 50V140H110C107.348 140 104.804 141.054 102.929 142.929C101.054 144.804 100 147.348 100 150C100 152.652 101.054 155.196 102.929 157.071C104.804 158.946 107.348 160 110 160Z" fill="url(#paint0_linear_97_1144)"/>
<path d="M210 170C210 167.348 208.946 164.804 207.071 162.929C205.196 161.054 202.652 160 200 160C197.348 160 194.804 161.054 192.929 162.929C191.054 164.804 190 167.348 190 170C190 184.2 165.4 200 130 200C94.6 200 70 184.2 70 170C70 167.348 68.9464 164.804 67.0711 162.929C65.1957 161.054 62.6522 160 60 160C57.3478 160 54.8043 161.054 52.9289 162.929C51.0536 164.804 50 167.348 50 170C50 198 85.1 220 130 220C174.9 220 210 198 210 170Z" fill="url(#paint1_linear_97_1144)"/>
</svg>
