<svg width="260" height="260" viewBox="0 0 260 260" fill="none" xmlns="http://www.w3.org/2000/svg">
<defs>
<linearGradient id="paint0_linear_78_550" x1="130" y1="0" x2="130" y2="260" gradientUnits="userSpaceOnUse">
<stop stop-color="#0DD2DD"/>
<stop offset="1" stop-color="#014B50"/>
</linearGradient>
</defs>
<path d="M166.481 130.746C174.232 138.382 178.619 147.644 181.788 160.438L183.172 166.515L185.65 179.136C186.881 185.066 187.836 188.358 189.165 191.237C193.317 200.206 200.652 209.415 211.24 218.757C212.27 219.637 213.109 220.705 213.707 221.9C214.304 223.095 214.649 224.393 214.72 225.717C214.792 227.041 214.589 228.366 214.124 229.615C213.658 230.863 212.939 232.009 212.009 232.987C211.079 233.965 209.955 234.755 208.705 235.311C207.454 235.867 206.102 236.178 204.725 236.225C203.349 236.273 201.976 236.056 200.688 235.587C199.399 235.119 198.22 234.408 197.22 233.496C184.653 222.408 175.63 211.067 170.204 199.379C168.142 194.928 166.883 190.717 165.416 183.654L162.509 168.994L162.315 168.194C159.824 156.866 156.724 149.736 151.631 144.712C141.763 134.984 119.01 137.556 112.92 146.818C105.142 158.666 103.163 178.749 109.336 199.006C114.111 214.652 120.436 230.058 128.324 245.211C128.993 246.389 129.408 247.684 129.546 249.02C129.683 250.356 129.54 251.705 129.124 252.986C128.708 254.267 128.028 255.455 127.126 256.478C126.223 257.5 125.115 258.338 123.869 258.939C122.623 259.541 121.264 259.895 119.873 259.98C118.481 260.065 117.087 259.879 115.772 259.434C114.457 258.988 113.248 258.292 112.219 257.387C111.189 256.482 110.359 255.387 109.779 254.167C101.464 238.275 94.6506 221.697 89.4201 204.63C81.642 179.149 84.2163 153.135 95.3713 136.13C108.561 116.059 147.161 111.688 166.481 130.746ZM133.736 161.597C135.099 161.553 136.458 161.768 137.735 162.229C139.012 162.691 140.182 163.39 141.179 164.288C142.175 165.185 142.977 166.263 143.541 167.459C144.104 168.655 144.417 169.947 144.462 171.26C145.173 191.847 152.12 211.784 164.447 228.619L167.159 232.164L171.311 237.361C172.904 239.36 173.654 241.864 173.411 244.373C173.169 246.881 171.951 249.209 170.002 250.89C168.054 252.571 165.517 253.482 162.901 253.439C160.285 253.397 157.783 252.405 155.894 250.662L154.869 249.555L150.717 244.358C134.069 223.529 124.625 198.195 123.716 171.926C123.622 169.277 124.625 166.7 126.505 164.764C128.384 162.827 130.985 161.688 133.736 161.597ZM82.4032 93.8565C111.633 73.0265 149.859 74.1592 175.574 90.0716C188.445 98.0412 198.203 107.33 204.68 117.965C206.074 120.252 206.469 122.979 205.776 125.545C205.083 128.112 203.359 130.309 200.984 131.652C198.61 132.995 195.778 133.375 193.112 132.707C190.447 132.04 188.166 130.38 186.771 128.093C182.037 120.311 174.619 113.234 164.35 106.89C145.5 95.2158 116.602 94.3629 94.7623 109.929C72.0786 126.094 62.529 153.788 65.38 182.987C66.9716 199.339 72.0786 215.865 80.784 232.617C81.9883 234.986 82.1715 237.717 81.2938 240.215C80.416 242.713 78.5483 244.776 76.0978 245.955C73.6473 247.133 70.8125 247.33 68.2112 246.505C65.61 245.679 63.4531 243.896 62.2107 241.546C52.3981 222.662 46.5438 203.737 44.703 184.853C41.243 149.27 53.1455 114.713 82.4032 93.8565ZM209.454 151.176C212.201 151.042 214.891 151.963 216.934 153.737C218.976 155.511 220.203 157.993 220.347 160.638C220.776 168.687 222.838 175.258 226.464 180.548C229.509 184.986 232.194 187.545 234.256 188.545L235.1 188.864C237.736 189.631 239.947 191.375 241.247 193.712C242.547 196.049 242.83 198.787 242.034 201.325C241.237 203.863 239.426 205.992 237 207.244C234.573 208.496 231.729 208.769 229.093 208.002C221.523 205.803 215.018 200.166 209.122 191.543C203.379 183.147 200.237 173.125 199.614 161.677C199.543 160.367 199.741 159.055 200.197 157.818C200.652 156.581 201.356 155.442 202.269 154.467C203.181 153.492 204.284 152.699 205.515 152.134C206.745 151.57 208.079 151.244 209.441 151.176H209.454ZM106.305 50.0374C106.865 51.2353 107.173 52.5276 107.214 53.8405C107.255 55.1534 107.026 56.4611 106.542 57.6889C106.057 58.9167 105.326 60.0405 104.39 60.9961C103.454 61.9516 102.332 62.7202 101.087 63.2578C75.6216 74.2925 56.8823 90.0183 44.5785 110.542C29.1746 136.236 25.0087 166.262 28.4687 191.57C28.6468 192.872 28.5569 194.195 28.204 195.464C27.851 196.732 27.2421 197.921 26.4119 198.963C24.7352 201.068 22.259 202.445 19.5281 202.791C18.1759 202.963 16.8018 202.876 15.4844 202.536C14.1669 202.196 12.9319 201.61 11.8498 200.811C9.66435 199.196 8.23451 196.812 7.87479 194.182C3.88887 164.849 8.63599 130.506 26.6003 100.547C41.1738 76.2782 63.2625 57.7404 92.5895 45.0265C93.8326 44.4872 95.1739 44.189 96.5367 44.149C97.8995 44.1089 99.2572 44.3278 100.532 44.7932C101.807 45.2585 102.974 45.9612 103.967 46.861C104.96 47.7608 105.759 48.8402 106.319 50.0374H106.305ZM138.732 39.5491C164.059 40.0422 189.276 51.2502 214.285 72.6799C239.515 94.2963 254.711 123.682 259.874 160.371C260.089 161.686 260.029 163.028 259.698 164.319C259.367 165.611 258.772 166.826 257.947 167.893C257.123 168.961 256.085 169.858 254.895 170.535C253.705 171.211 252.387 171.651 251.018 171.83C249.649 172.01 248.257 171.924 246.923 171.578C245.589 171.232 244.34 170.634 243.249 169.817C242.158 169.001 241.248 167.983 240.571 166.823C239.894 165.663 239.465 164.385 239.307 163.063C234.782 130.919 221.855 105.931 200.486 87.6195C178.896 69.1216 158.205 59.926 138.317 59.5396C136.954 59.5133 135.609 59.2288 134.36 58.7022C133.111 58.1757 131.982 57.4174 131.038 56.4707C130.093 55.524 129.352 54.4074 128.855 53.1846C128.359 51.9619 128.117 50.657 128.144 49.3444C128.172 48.0318 128.467 46.7373 129.014 45.5346C129.561 44.332 130.348 43.2449 131.331 42.3353C132.315 41.4257 133.474 40.7115 134.744 40.2334C136.014 39.7554 137.369 39.5229 138.732 39.5491ZM43.6374 39.7357C44.5465 40.716 45.246 41.8594 45.6956 43.1003C46.1453 44.3413 46.3364 45.6554 46.258 46.9676C46.1796 48.2797 45.8332 49.5641 45.2387 50.7472C44.6441 51.9303 43.8131 52.9888 42.7931 53.8623C39.0702 57.0341 35.1811 60.8323 31.1122 65.2435C27.2923 69.4015 23.3618 74.7856 19.4035 81.4091C18.7269 82.555 17.8216 83.5607 16.7397 84.3684C15.6579 85.176 14.4208 85.7696 13.0997 86.115C11.7786 86.4603 10.3996 86.5507 9.04208 86.3808C7.68458 86.2108 6.3754 85.7841 5.18989 85.125C4.00438 84.4659 2.96597 83.5875 2.13445 82.5404C1.30292 81.4932 0.6947 80.2981 0.344803 79.0237C-0.00509403 77.7493 -0.0897586 76.4209 0.0956878 75.1149C0.281134 73.8088 0.733026 72.551 1.42535 71.4139C5.45921 64.498 10.2023 57.9886 15.5837 51.9832C20.1647 46.9989 24.635 42.6543 28.9808 38.9227C29.9985 38.0493 31.185 37.3775 32.4724 36.9457C33.7598 36.5138 35.1229 36.3304 36.484 36.4059C37.845 36.4814 39.1772 36.8143 40.4046 37.3856C41.632 37.957 42.7305 38.7555 43.6374 39.7357ZM134.774 0.207896C165.125 1.58057 190.549 9.57675 211.309 25.0094C213.489 26.63 214.912 29.0182 215.264 31.6487C215.615 34.2792 214.867 36.9365 213.184 39.036C211.501 41.1355 209.021 42.5053 206.289 42.8439C203.558 43.1826 200.798 42.4624 198.618 40.8418C181.387 28.0213 160.073 21.3711 133.805 20.185C107.467 18.9856 85.9047 23.9699 68.5632 33.2321C63.2487 36.0708 57.2836 34.6448 54.2803 29.9404C53.5481 28.8275 53.0551 27.5845 52.8306 26.285C52.6061 24.9854 52.6547 23.6557 52.9735 22.3745C53.2922 21.0933 53.8747 19.8868 54.6863 18.8262C55.498 17.7657 56.5224 16.8728 57.6988 16.2003C78.9432 4.15268 104.506 -1.15145 134.788 0.207896H134.774Z" fill="url(#paint0_linear_78_550)"/>
</svg>
